<?xml version="1.0" standalone="no"?>
<!DOCTYPE svg PUBLIC "-//W3C//DTD SVG 20010904//EN"
 "http://www.w3.org/TR/2001/REC-SVG-20010904/DTD/svg10.dtd">
<svg version="1.0" xmlns="http://www.w3.org/2000/svg"
 width="512.000000pt" height="512.000000pt" viewBox="0 0 512.000000 512.000000"
 preserveAspectRatio="xMidYMid meet">
<metadata>
Created by potrace 1.14, written by Peter Selinger 2001-2017
</metadata>
<g transform="translate(0.000000,512.000000) scale(0.100000,-0.100000)"
fill="#000000" stroke="none">
<path d="M295 5107 c-17 -13 -18 -45 -18 -678 0 -365 3 -676 6 -691 13 -50 38
-48 175 14 34 15 64 28 67 28 2 0 32 13 67 29 104 47 144 65 353 156 208 90
216 94 328 144 38 17 70 31 72 31 4 0 35 14 173 76 31 15 109 49 172 76 194
84 201 88 209 111 4 12 7 171 7 353 -1 263 -4 335 -15 348 -12 15 -85 16 -795
16 -640 0 -786 -2 -801 -13z"/>
<path d="M2998 4205 c-2 -1 -35 -6 -74 -9 -67 -6 -84 -9 -144 -21 -14 -2 -39
-7 -56 -10 -49 -8 -203 -54 -274 -82 -151 -60 -304 -149 -428 -250 -59 -47
-69 -50 -97 -29 -17 12 -19 30 -20 179 -1 173 -7 197 -47 197 -18 0 -80 -24
-190 -74 -81 -36 -281 -124 -633 -278 -176 -77 -340 -149 -365 -160 -25 -11
-63 -28 -85 -38 -22 -10 -94 -42 -160 -70 -66 -29 -126 -58 -134 -65 -12 -12
-14 -264 -14 -1741 0 -1671 0 -1727 18 -1740 16 -12 165 -14 842 -14 l823 0
14 23 c12 19 14 172 15 1037 0 558 3 1033 6 1055 3 22 8 58 11 80 10 73 36
159 75 243 31 67 54 99 113 158 114 114 244 168 417 173 278 7 446 -148 503
-464 15 -83 18 -251 19 -1227 1 -581 6 -1060 10 -1065 5 -4 381 -9 836 -11
688 -2 830 0 846 11 18 14 18 51 18 1208 0 1051 -4 1407 -18 1477 -2 10 -6 44
-9 74 -5 46 -22 137 -51 269 -27 127 -173 465 -206 477 -5 2 -9 8 -9 14 0 19
-102 142 -184 223 -117 115 -205 179 -376 272 -129 70 -368 140 -580 169 -46
6 -406 14 -412 9z"/>
</g>
</svg>
